<?xml version="1.0" encoding="UTF-8" standalone="no"?>
<!-- Created with Inkscape (http://www.inkscape.org/) -->

<svg
   width="107.81639mm"
   height="63.923367mm"
   viewBox="0 0 107.81639 63.923367"
   version="1.1"
   id="svg1"
   xmlns="http://www.w3.org/2000/svg"
   xmlns:svg="http://www.w3.org/2000/svg">
  <defs
     id="defs1" />
  <g
     id="layer1"
     transform="translate(-56.007063,-34.96117)">
    <path
       id="path1"
       style="fill:#5e5194;fill-opacity:0.770186;stroke-width:0.264583"
       d="m 163.82345,43.890199 c 0,4.672188 -3.58849,8.506238 -8.15967,8.896345 -0.25358,0.02164 -90.468512,0.03268 -90.72769,0.03268 -4.931366,0 -8.929027,-3.997662 -8.929027,-8.929028 0,-4.931366 3.997661,-8.929028 8.929027,-8.929028 0.29987,0 90.55462,0.01478 90.8469,0.04366 4.5142,0.44598 8.04046,4.253874 8.04046,8.885371 z" />
    <path
       id="path2"
       style="fill:#5e5194;fill-opacity:0.770186;stroke-width:0.234396"
       d="m 159.17651,70.155505 c 0,3.932152 -3.3464,7.158919 -7.60921,7.487236 -0.23647,0.01821 -84.365353,0.0275 -84.607046,0.0275 -4.598688,0 -8.326661,-3.364465 -8.326661,-7.514742 0,-4.150278 3.727973,-7.514743 8.326661,-7.514743 0.27964,0 84.445656,0.01244 84.718216,0.03675 4.20967,0.37534 7.49804,3.580095 7.49804,7.477999 z" />
    <path
       id="path3"
       style="fill:#5e5194;fill-opacity:0.770186;stroke-width:0.197175"
       d="m 153.92345,92.986116 c 0,3.086396 -3.0169,5.619122 -6.85996,5.876825 -0.21319,0.01429 -76.05829,0.02159 -76.276185,0.02159 -4.145877,0 -7.506773,-2.64081 -7.506773,-5.898415 0,-3.257605 3.360896,-5.898416 7.506773,-5.898416 0.252105,0 76.130685,0.0098 76.376405,0.02885 3.79516,0.294609 6.75974,2.810061 6.75974,5.869575 z" />
  </g>
</svg>
